<svg xmlns="http://www.w3.org/2000/svg"
    xmlns:xlink="http://www.w3.org/1999/xlink" width="48" zoomAndPan="magnify" viewBox="0 0 375 374.999991" height="48" preserveAspectRatio="xMidYMid meet" version="1.0">
    <defs>
        <clipPath id="f6d35ad14a">
            <path d="M 1.609375 3.035156 L 370.359375 3.035156 L 370.359375 371.785156 L 1.609375 371.785156 Z M 1.609375 3.035156 " clip-rule="nonzero"/>
        </clipPath>
        <clipPath id="f3e5207fbf">
            <path d="M 59.699219 3.035156 L 312.265625 3.035156 C 327.671875 3.035156 342.449219 9.15625 353.34375 20.046875 C 364.238281 30.941406 370.359375 45.71875 370.359375 61.125 L 370.359375 313.691406 C 370.359375 329.101562 364.238281 343.875 353.34375 354.769531 C 342.449219 365.664062 327.671875 371.785156 312.265625 371.785156 L 59.699219 371.785156 C 44.292969 371.785156 29.515625 365.664062 18.621094 354.769531 C 7.726562 343.875 1.609375 329.101562 1.609375 313.691406 L 1.609375 61.125 C 1.609375 45.71875 7.726562 30.941406 18.621094 20.046875 C 29.515625 9.15625 44.292969 3.035156 59.699219 3.035156 Z M 59.699219 3.035156 " clip-rule="nonzero"/>
        </clipPath>
        <clipPath id="59bffa97dd">
            <path d="M 40 47 L 336.625 47 L 336.625 331.601562 L 40 331.601562 Z M 40 47 " clip-rule="nonzero"/>
        </clipPath>
    </defs>
    <g clip-path="url(#f6d35ad14a)">
        <g clip-path="url(#f3e5207fbf)">
            <path fill="#f8f8f8" d="M 1.609375 3.035156 L 370.359375 3.035156 L 370.359375 371.785156 L 1.609375 371.785156 Z M 1.609375 3.035156 " fill-opacity="1" fill-rule="nonzero"/>
        </g>
    </g>
    <g clip-path="url(#59bffa97dd)">
        <path fill="#5271ff" d="M 235.726562 331.328125 C 206.695312 331.328125 176.105469 324.148438 150.351562 309.945312 C 147.226562 308.226562 145.042969 305.261719 144.417969 301.984375 L 173.292969 301.984375 C 182.191406 301.984375 182.191406 288.5625 173.292969 288.5625 C 152.378906 288.5625 131.464844 288.5625 110.546875 288.5625 C 101.652344 288.5625 101.652344 275.136719 110.546875 275.136719 L 153.941406 275.136719 C 156.125 274.824219 158.777344 272.015625 158.777344 268.738281 C 158.777344 264.992188 155.8125 262.027344 152.066406 262.027344 L 116.480469 262.027344 C 107.582031 262.027344 107.582031 248.605469 116.480469 248.605469 L 155.5 248.605469 C 158.152344 248.449219 160.808594 249.226562 163.148438 250.945312 C 185.78125 267.332031 208.257812 277.792969 236.820312 277.792969 C 253.679688 277.792969 272.25 273.109375 275.996094 257.65625 L 242.75 257.65625 C 233.855469 257.65625 233.855469 244.234375 242.75 244.234375 L 275.996094 244.234375 C 284.269531 243.140625 283.488281 230.808594 275.0625 230.808594 C 252.429688 230.808594 229.953125 230.808594 207.320312 230.808594 C 198.425781 230.808594 198.425781 217.386719 207.320312 217.386719 C 215.125 217.386719 222.773438 217.386719 230.578125 217.386719 C 239.472656 217.386719 239.472656 203.964844 230.578125 203.964844 C 200.140625 203.964844 169.703125 203.964844 139.269531 203.964844 C 130.371094 203.964844 130.371094 190.539062 139.269531 190.539062 L 190.308594 190.539062 C 199.203125 190.539062 199.203125 177.117188 190.308594 177.117188 C 168.613281 177.117188 146.914062 177.117188 125.21875 177.117188 C 116.324219 177.117188 116.324219 163.695312 125.21875 163.695312 L 162.367188 163.695312 C 171.265625 163.695312 171.265625 150.269531 162.367188 150.269531 L 93.535156 150.269531 C 84.636719 150.269531 84.636719 136.847656 93.535156 136.847656 L 135.679688 136.847656 C 143.015625 136.222656 143.324219 123.578125 134.585938 123.578125 L 123.035156 123.578125 C 114.136719 123.578125 114.136719 110.15625 123.035156 110.15625 L 155.03125 110.15625 C 157.375 109.84375 160.183594 107.035156 160.183594 103.601562 C 160.183594 100.324219 157.6875 97.511719 154.5625 97.046875 L 118.039062 97.046875 C 109.144531 97.046875 109.144531 83.621094 118.039062 83.621094 L 175.167969 83.621094 C 183.90625 83.621094 183.75 70.980469 176.261719 70.355469 L 138.175781 70.355469 C 129.277344 70.355469 129.277344 56.929688 138.175781 56.929688 L 177.039062 56.929688 C 180.007812 55.527344 183.128906 54.433594 186.40625 53.339844 C 215.4375 43.664062 253.523438 46.628906 281.460938 56.464844 C 294.726562 61.144531 307.058594 67.546875 318.609375 75.351562 C 324.070312 79.09375 325.476562 86.585938 321.730469 92.050781 L 303.3125 118.742188 C 299.722656 124.046875 292.542969 125.453125 287.078125 122.175781 C 267.570312 110.15625 247.121094 101.105469 224.644531 101.105469 C 205.914062 101.105469 189.058594 107.816406 189.058594 126.078125 C 189.058594 143.402344 202.324219 149.023438 219.339844 154.171875 C 271.628906 170.09375 336.871094 177.585938 336.871094 245.480469 C 336.871094 304.167969 290.824219 331.328125 235.726562 331.328125 Z M 214.03125 243.921875 L 224.800781 243.921875 C 233.699219 243.921875 233.699219 257.34375 224.800781 257.34375 L 214.03125 257.34375 C 205.292969 257.34375 205.292969 243.921875 214.03125 243.921875 Z M 47.023438 82.996094 C 52.796875 82.996094 62.316406 81.4375 62.316406 89.710938 C 62.316406 97.980469 52.796875 96.421875 47.023438 96.421875 C 38.125 96.421875 38.125 82.996094 47.023438 82.996094 Z M 73.710938 82.996094 L 99.152344 82.996094 C 108.050781 82.996094 108.050781 96.421875 99.152344 96.421875 L 73.710938 96.421875 C 64.816406 96.421875 64.816406 82.996094 73.710938 82.996094 Z M 160.183594 217.074219 L 176.726562 217.074219 C 185.625 217.074219 185.625 230.496094 176.726562 230.496094 L 160.183594 230.496094 C 151.285156 230.496094 151.285156 217.074219 160.183594 217.074219 Z M 111.484375 56.308594 L 121.472656 56.308594 C 130.371094 56.308594 130.371094 69.730469 121.472656 69.730469 L 111.484375 69.730469 C 102.585938 69.730469 102.585938 56.308594 111.484375 56.308594 Z M 98.53125 163.226562 L 108.050781 163.226562 C 116.949219 163.226562 116.949219 176.648438 108.050781 176.648438 L 98.53125 176.648438 C 89.632812 176.804688 89.632812 163.226562 98.53125 163.226562 Z M 50.144531 136.378906 L 76.210938 136.378906 C 85.105469 136.378906 85.105469 149.800781 76.210938 149.800781 L 50.144531 149.800781 C 41.246094 149.800781 41.246094 136.378906 50.144531 136.378906 Z M 84.949219 275.136719 C 90.726562 275.136719 100.402344 273.578125 100.402344 281.851562 C 100.402344 290.121094 90.882812 288.5625 84.949219 288.5625 C 76.054688 288.5625 76.054688 275.136719 84.949219 275.136719 Z M 84.949219 275.136719 " fill-opacity="1" fill-rule="evenodd"/>
    </g>
</svg>